<svg xmlns="http://www.w3.org/2000/svg" width="1200" height="260" viewBox="0 0 1200 260">
  <defs>
    <!-- Base dark gradient -->
    <linearGradient id="bg" x1="0" y1="0" x2="1" y2="1">
      <stop offset="0%"  stop-color="#07090c"/>
      <stop offset="45%" stop-color="#0e1116"/>
      <stop offset="100%" stop-color="#1a1f26"/>
    </linearGradient>

    <!-- Soft vignette -->
    <radialGradient id="vig" cx="50%" cy="35%" r="80%">
      <stop offset="0%" stop-color="#ffffff" stop-opacity="0.06"/>
      <stop offset="55%" stop-color="#ffffff" stop-opacity="0.02"/>
      <stop offset="100%" stop-color="#000000" stop-opacity="0.40"/>
    </radialGradient>

    <!-- Glints -->
    <linearGradient id="glintBlue" x1="0" y1="0" x2="1" y2="0">
      <stop offset="0%"   stop-color="#60a5fa" stop-opacity="0"/>
      <stop offset="50%"  stop-color="#60a5fa" stop-opacity="0.35"/>
      <stop offset="100%" stop-color="#60a5fa" stop-opacity="0"/>
    </linearGradient>

    <linearGradient id="glintRed" x1="0" y1="0" x2="1" y2="0">
      <stop offset="0%"   stop-color="#fb7185" stop-opacity="0"/>
      <stop offset="50%"  stop-color="#fb7185" stop-opacity="0.28"/>
      <stop offset="100%" stop-color="#fb7185" stop-opacity="0"/>
    </linearGradient>

    <!-- Glow filter -->
    <filter id="glow" x="-30%" y="-30%" width="160%" height="160%">
      <feGaussianBlur stdDeviation="14" result="b"/>
      <feMerge>
        <feMergeNode in="b"/>
        <feMergeNode in="SourceGraphic"/>
      </feMerge>
    </filter>

    <!-- Subtle noise (static) -->
    <filter id="noise" x="0" y="0" width="100%" height="100%">
      <feTurbulence type="fractalNoise" baseFrequency="0.8" numOctaves="2" stitchTiles="stitch" />
      <feColorMatrix type="matrix"
        values="0 0 0 0 0
                0 0 0 0 0
                0 0 0 0 0
                0 0 0 0.06 0"/>
    </filter>
  </defs>

  <!-- Background -->
  <rect width="1200" height="260" fill="url(#bg)"/>
  <rect width="1200" height="260" fill="url(#vig)"/>

  <!-- Glowing blobs -->
  <circle cx="930" cy="72" r="86" fill="#60a5fa" opacity="0.12" filter="url(#glow)"/>
  <circle cx="255" cy="78" r="72" fill="#fb7185" opacity="0.10" filter="url(#glow)"/>
  <circle cx="610" cy="40" r="58" fill="#ffffff" opacity="0.05" filter="url(#glow)"/>

  <!-- Glint lines -->
  <g opacity="1">
    <rect x="-60" y="92" width="520" height="2" fill="url(#glintRed)" transform="rotate(-8 200 92)"/>
    <rect x="640" y="64" width="620" height="2" fill="url(#glintBlue)" transform="rotate(6 920 64)"/>
    <rect x="120" y="214" width="980" height="1.5" fill="#ffffff" opacity="0.06"/>
  </g>

  <!-- Wave / base highlight -->
  <path d="M0,190 C170,242 330,148 500,190 C670,232 830,150 1000,190 C1110,216 1160,206 1200,190 L1200,260 L0,260 Z"
        fill="#ffffff" opacity="0.06"/>
  <path d="M0,204 C175,256 340,164 510,204 C680,246 845,166 1015,204 C1120,232 1165,222 1200,204 L1200,260 L0,260 Z"
        fill="#ffffff" opacity="0.045"/>

  <!-- Noise overlay -->
  <rect width="1200" height="260" filter="url(#noise)" opacity="1"/>

  <!-- Text -->
  <g font-family="Segoe UI, Inter, Arial, sans-serif">
    <text x="72" y="118" font-size="64" font-weight="800" fill="#e5e7eb">YoSiem</text>
    <text x="72" y="158" font-size="22" fill="#cbd5e1" opacity="0.95">Game Engineer • Rappelz Focus • C++ &amp; C#</text>
    <text x="72" y="194" font-size="18" fill="#94a3b8" opacity="0.95">Server core • Tooling (.NET) • MSR / CoDeSys 3.5 / WAGO HVAC</text>
  </g>
</svg>